<svg width="650.000000" height="692.000000" viewBox="0 0 650 692" fill="none" xmlns="http://www.w3.org/2000/svg" xmlns:xlink="http://www.w3.org/1999/xlink">
	<desc>
			Created with Pixso.
	</desc>
	<defs/>
	<g opacity="0.200000">
		<path id="path2" d="M0 339.36C0 445.94 39.8 529.19 96.51 585.81C127.67 616.91 149.99 635.2 191.52 655.98C259.4 689.94 295.03 691.29 368.09 691.29C442.76 691.29 534.66 648.35 587.61 594.78C603.52 578.68 644.96 530.57 650 511.74C645.63 514.65 643.31 518.66 639.78 523.07C635.26 528.73 634.05 530.45 628.91 535.53C621.52 542.84 614.1 551.42 606.37 557.89C497.31 649.21 360.19 658.74 237.08 585.28L206.06 562.44C204.81 561.38 202.22 559.11 201.33 558.19C196.61 553.3 199.94 559.74 197.51 553.04C216.54 553.04 235.25 549.32 259.3 557.68C269.93 561.38 339.29 596.59 351.68 605.36C379.48 625.03 420.18 625.88 452.27 612.09L485.05 596.38C492.42 593.4 500.57 587.78 508.15 587.15L508.15 583.56C500.25 582.9 392.73 544.39 371.39 537.16L362.7 533.29C379.86 533.29 510.46 574.58 540.46 574.58C558.14 574.58 585.4 532.63 533.55 516.86L438.18 486.53L398.68 463.19C392.62 459.69 386.73 455.58 379.88 451.46C372.87 447.25 367.16 443.81 360.8 440.01C310.14 409.7 281.32 386.04 217.26 386.04C172.28 386.04 143.89 401.94 111.32 423.75C96.07 358.28 96.96 375.44 96.96 307.05C96.96 268.26 113.54 220.22 126.27 192.72C130.47 183.65 134.02 177.88 139.03 169.55C165.59 125.4 203.05 86.78 247.87 61.14C288.54 37.87 340.55 19.74 387.84 19.74C439.5 19.74 434.28 18.34 486.6 30.52C476.99 17.41 388.78 0 364.5 0C287.62 0 266.01 3.67 195.19 33.59C189.52 35.98 187.34 37.57 182.38 40.54C177.16 43.67 173.35 45.01 168.4 48.1C67.45 111.37 0 217.04 0 339.36Z" fill="#EC6B1E" fill-opacity="1.000000" fill-rule="evenodd"/>
		<path id="path18" d="M375.26 258.57C394.53 258.57 405.79 263.95 405.79 287.29C405.79 317.3 353.68 319.64 352.5 285.29C352.08 272.94 362.08 258.57 375.26 258.57ZM337.56 404L339.86 366.78C342.36 349.31 339.97 349.2 332.18 337.57C327.91 331.21 301.65 294.1 301.65 289.08C301.65 268.75 328.3 298.32 328.31 298.33C334.21 303.04 336.21 304.73 341.6 310.18C357.43 326.19 350.15 321.41 402.2 321.41C405.36 321.41 421.45 309.24 425.05 306.55C429.6 303.15 443.95 290.88 448.88 290.88C467 290.88 441.22 319.53 434.86 328.92C432.37 332.6 431.15 334.81 428.38 338.6C417.44 353.59 419.29 347.71 420 360.86C420.41 368.57 421.1 371.94 421.66 377.36C422.88 389.01 422.81 397.45 424.03 409.1L428.5 454.91C430.94 463.34 430.13 460.12 437.97 463.41C444.51 466.15 455.09 471.56 463.25 472.24C463.59 457.06 470.99 440.43 472.23 425.54C492.96 425.54 535.69 425.71 536.99 405.77C537.32 400.76 535.21 385.9 534.33 379.6C529.68 345.98 519.25 264.44 511.75 233.4C503.63 199.77 486.45 184.76 448.86 183.09C413.94 181.53 423.97 185.25 402.2 190.33C398.09 187.58 394.9 184.29 390.19 180.79C362.12 159.94 303 161.36 278.36 174.23C266.41 180.46 257.33 188.12 254.66 204.39C249.87 233.51 242.81 264.37 239.13 294.79C232.35 350.67 255.59 323.1 261.88 346.81C263.6 353.28 265.45 362.82 267.41 368.21C269.6 374.25 268.4 372.92 281.92 378.84L318.56 396.06C325.5 398.93 331.38 402.57 337.56 404Z" fill="#EC6B1E" fill-opacity="1.000000" fill-rule="evenodd"/>
		<path id="path32" d="M504.55 504.55C515.09 509.61 531.21 512.73 542.53 516.85C554.31 521.12 565.6 530.14 565.6 545.85L569.19 545.85C570.86 539.57 624.01 459.06 629.87 450.33C637.75 438.59 649.99 424.62 649.99 414.77C649.99 398.95 615.13 405.94 599.68 405.77C577.2 405.53 574.19 410.65 559.17 429.9C549.27 442.59 540.56 453.83 531.2 466.57C526.73 472.66 505.8 499.86 504.55 504.55Z" fill="#EC6B1E" fill-opacity="1.000000" fill-rule="evenodd"/>
		<path id="path34" d="M292.68 102.35C292.68 176.59 377.07 164.15 377.07 107.73C377.07 90.76 366.96 72.9 353.44 64.92C323.01 46.93 292.68 77.65 292.68 102.35Z" fill="#EC6B1E" fill-opacity="1.000000" fill-rule="evenodd"/>
		<path id="path36" d="M398.61 131.08C398.61 180.85 468.64 191.38 468.64 131.08C468.64 111.43 451.88 95.05 434.18 93.81C415.38 92.5 398.61 112.95 398.61 131.08Z" fill="#EC6B1E" fill-opacity="1.000000" fill-rule="evenodd"/>
		<path id="path38" d="M432.73 89.77C448.16 89.77 454.07 95.47 461.97 103.63C469.57 111.49 474.03 125.15 474.03 134.66C474.03 149.34 464.78 150.26 477.06 162.15C482.56 167.48 492.85 174.08 500.96 175.96C499.74 170.71 496.05 165.51 491.98 149.04C487.36 130.29 474.07 79 450.68 79C441.81 79 433.69 78.2 432.73 89.77Z" fill="#EC6B1E" fill-opacity="1.000000" fill-rule="evenodd"/>
	</g>
</svg>
