<svg width="30.000000" height="29.000000" viewBox="0 0 30 29" fill="none" xmlns="http://www.w3.org/2000/svg" xmlns:xlink="http://www.w3.org/1999/xlink">
	<desc>
			Created with Pixso.
	</desc>
	<defs/>
	<path id="Vector" d="M2.21 2.22C2.54 2 2.94 1.91 3.33 1.98C3.72 2.05 4.07 2.27 4.3 2.6L11.45 12.85C11.61 13.06 11.84 13.21 12.1 13.26C12.36 13.3 12.63 13.24 12.85 13.09C13.06 12.94 13.21 12.71 13.26 12.45C13.3 12.19 13.25 11.92 13.09 11.7L10.19 7.55L10.33 7.44C10.84 7.06 11.37 6.7 11.7 6.55C11.95 6.44 12.29 6.37 12.64 6.34C12.82 6.32 13.06 6.41 13.25 6.68L15.55 9.98C15.7 10.2 15.94 10.35 16.2 10.4C16.46 10.44 16.73 10.38 16.95 10.23C17.16 10.08 17.31 9.85 17.36 9.59C17.4 9.32 17.34 9.06 17.19 8.84L15.4 6.27L15.56 6.13C16.05 5.73 16.51 5.45 16.77 5.39C17.02 5.33 17.5 5.39 18.06 5.54C18.3 5.6 18.52 5.68 18.68 5.73L20.23 7.94C20.38 8.16 20.61 8.31 20.87 8.35C21.13 8.4 21.4 8.34 21.62 8.19C21.84 8.04 21.98 7.8 22.03 7.54C22.08 7.28 22.02 7.01 21.87 6.8L20.72 5.16L21.28 4.76C21.51 4.6 21.77 4.49 22.04 4.44C22.32 4.39 22.6 4.39 22.87 4.46C23.15 4.52 23.4 4.64 23.63 4.81C23.85 4.97 24.04 5.19 24.17 5.43L26.84 10.19C27.18 10.8 27.39 11.48 27.45 12.18L27.96 17.78C27.97 17.96 27.94 18.13 27.87 18.29C27.8 18.45 27.68 18.59 27.54 18.69L17.2 25.91C17.05 26.01 16.87 26.08 16.68 26.09C16.5 26.1 16.32 26.05 16.15 25.97L11.31 23.33L2.4 19.35C2.17 19.24 1.99 19.06 1.88 18.83C1.78 18.6 1.76 18.34 1.84 18.1C1.91 17.86 2.07 17.65 2.28 17.52C2.5 17.39 2.75 17.34 3 17.39L9.71 18.58C9.91 18.61 10.11 18.59 10.29 18.51C10.47 18.43 10.63 18.3 10.73 18.13C10.84 17.97 10.89 17.77 10.89 17.58C10.89 17.38 10.82 17.19 10.71 17.02L1.84 4.31C1.61 3.99 1.52 3.58 1.59 3.19C1.66 2.8 1.88 2.45 2.21 2.22ZM9.05 5.91L5.94 1.45C5.41 0.69 4.59 0.17 3.68 0.01C2.77 -0.15 1.83 0.05 1.06 0.59C0.3 1.12 -0.22 1.93 -0.38 2.84C-0.54 3.76 -0.33 4.7 0.2 5.46L7.69 16.19L3.35 15.42C2.63 15.29 1.88 15.43 1.25 15.82C0.62 16.2 0.15 16.81 -0.07 17.51C-0.29 18.22 -0.24 18.98 0.07 19.65C0.37 20.33 0.91 20.87 1.58 21.17L10.42 25.13L15.2 27.72C15.69 27.99 16.24 28.11 16.8 28.08C17.35 28.05 17.89 27.87 18.35 27.55L28.68 20.33C29.11 20.03 29.46 19.62 29.68 19.14C29.91 18.66 30 18.13 29.95 17.6L29.44 12C29.35 11.02 29.06 10.07 28.58 9.22L25.92 4.45C25.64 3.97 25.27 3.54 24.83 3.2C24.38 2.87 23.87 2.63 23.32 2.51C22.78 2.38 22.21 2.37 21.66 2.48C21.11 2.58 20.59 2.81 20.14 3.13L19.18 3.79C18.98 3.72 18.78 3.66 18.58 3.61C18 3.45 17.09 3.26 16.32 3.44C15.55 3.62 14.78 4.19 14.29 4.59L14.09 4.76C13.6 4.43 13.02 4.29 12.44 4.35C11.91 4.39 11.39 4.52 10.9 4.72C10.32 4.97 9.62 5.47 9.12 5.85L9.05 5.91Z" fill="#212121" fill-opacity="1.000000" fill-rule="nonzero"/>
</svg>
