<svg width="5.000000" height="9.000000" viewBox="0 0 5 9" fill="none" xmlns="http://www.w3.org/2000/svg" xmlns:xlink="http://www.w3.org/1999/xlink">
	<desc>
			Created with Pixso.
	</desc>
	<defs/>
	<path id="Vector" d="M4.51 -0.77C4.55 -0.74 4.57 -0.69 4.59 -0.65C4.61 -0.6 4.62 -0.55 4.62 -0.5C4.62 -0.46 4.61 -0.41 4.59 -0.36C4.57 -0.32 4.55 -0.27 4.51 -0.24L0.27 4L4.51 8.23C4.58 8.3 4.62 8.4 4.62 8.5C4.62 8.59 4.58 8.69 4.51 8.76C4.44 8.83 4.34 8.87 4.24 8.87C4.15 8.87 4.05 8.83 3.98 8.76L-0.52 4.26C-0.56 4.23 -0.58 4.18 -0.6 4.14C-0.62 4.09 -0.63 4.04 -0.63 4C-0.63 3.95 -0.62 3.9 -0.6 3.85C-0.58 3.81 -0.56 3.76 -0.52 3.73L3.98 -0.77C4.01 -0.81 4.06 -0.83 4.1 -0.85C4.15 -0.87 4.2 -0.88 4.24 -0.88C4.29 -0.88 4.34 -0.87 4.39 -0.85C4.43 -0.83 4.48 -0.81 4.51 -0.77Z" fill="#000000" fill-opacity="1.000000" fill-rule="evenodd"/>
	<path id="Vector" d="M3.76 0.51L4.51 -0.24C4.55 -0.27 4.57 -0.32 4.59 -0.36C4.61 -0.41 4.62 -0.46 4.62 -0.5C4.62 -0.55 4.61 -0.6 4.59 -0.65C4.57 -0.69 4.55 -0.74 4.51 -0.77C4.48 -0.81 4.43 -0.83 4.39 -0.85C4.34 -0.87 4.29 -0.88 4.24 -0.88C4.2 -0.88 4.15 -0.87 4.1 -0.85C4.06 -0.83 4.01 -0.81 3.98 -0.77L3.23 -0.02L-0.52 3.73C-0.56 3.76 -0.58 3.81 -0.6 3.85C-0.62 3.9 -0.63 3.95 -0.63 4C-0.63 4.04 -0.62 4.09 -0.6 4.14C-0.58 4.18 -0.56 4.23 -0.52 4.26L3.23 8.01L3.98 8.76C4.05 8.83 4.15 8.87 4.24 8.87C4.34 8.87 4.44 8.83 4.51 8.76C4.58 8.69 4.62 8.59 4.62 8.5C4.62 8.4 4.58 8.3 4.51 8.23L3.76 7.48L1.34 5.06L0.8 4.53L0.76 4.48L0.28 4L0.27 4L0.76 3.51L0.8 3.47L1.34 2.93L3.76 0.51Z" fill="#000000" fill-opacity="1.000000" fill-rule="evenodd"/>
</svg>
