<svg width="16" height="16" viewBox="0 0 16 16" fill="none" xmlns="http://www.w3.org/2000/svg">
<path d="M0.453557 0.453496C0.55806 0.348729 0.682205 0.265607 0.818882 0.208893C0.955558 0.152178 1.10208 0.122986 1.25006 0.122986C1.39803 0.122986 1.54456 0.152178 1.68123 0.208893C1.81791 0.265607 1.94205 0.348729 2.04656 0.453496L8.00006 6.40925L13.9536 0.453496C14.0582 0.348898 14.1823 0.265927 14.319 0.209319C14.4557 0.152711 14.6021 0.123575 14.7501 0.123575C14.898 0.123575 15.0445 0.152711 15.1811 0.209319C15.3178 0.265927 15.442 0.348898 15.5466 0.453496C15.6512 0.558094 15.7341 0.68227 15.7907 0.818933C15.8473 0.955597 15.8765 1.10207 15.8765 1.25C15.8765 1.39792 15.8473 1.5444 15.7907 1.68106C15.7341 1.81772 15.6512 1.9419 15.5466 2.0465L9.59081 8L15.5466 13.9535C15.6512 14.0581 15.7341 14.1823 15.7907 14.3189C15.8473 14.4556 15.8765 14.6021 15.8765 14.75C15.8765 14.8979 15.8473 15.0444 15.7907 15.1811C15.7341 15.3177 15.6512 15.4419 15.5466 15.5465C15.442 15.6511 15.3178 15.7341 15.1811 15.7907C15.0445 15.8473 14.898 15.8764 14.7501 15.8764C14.6021 15.8764 14.4557 15.8473 14.319 15.7907C14.1823 15.7341 14.0582 15.6511 13.9536 15.5465L8.00006 9.59075L2.04656 15.5465C1.94196 15.6511 1.81778 15.7341 1.68112 15.7907C1.54446 15.8473 1.39798 15.8764 1.25006 15.8764C1.10213 15.8764 0.955658 15.8473 0.818994 15.7907C0.682331 15.7341 0.558155 15.6511 0.453557 15.5465C0.348959 15.4419 0.265988 15.3177 0.20938 15.1811C0.152772 15.0444 0.123636 14.8979 0.123636 14.75C0.123636 14.6021 0.152772 14.4556 0.20938 14.3189C0.265988 14.1823 0.348959 14.0581 0.453557 13.9535L6.40931 8L0.453557 2.0465C0.34879 1.94199 0.265668 1.81785 0.208954 1.68117C0.152239 1.5445 0.123047 1.39797 0.123047 1.25C0.123047 1.10202 0.152239 0.955497 0.208954 0.818821C0.265668 0.682144 0.34879 0.557999 0.453557 0.453496Z" fill="white"/>
</svg>
