<svg width="24.000000" height="24.000000" viewBox="0 0 24 24" fill="none" xmlns="http://www.w3.org/2000/svg" xmlns:xlink="http://www.w3.org/1999/xlink">
	<desc>
			Created with Pixso.
	</desc>
	<defs>
		<clipPath id="clip96_2183">
			<rect id="Check" width="24.000000" height="24.000000" fill="white" fill-opacity="0"/>
		</clipPath>
		<clipPath id="clip96_2185">
			<rect id="X" width="24.000000" height="24.000000" fill="white" fill-opacity="0"/>
		</clipPath>
	</defs>
	<circle id="Ellipse 185" cx="12.000000" cy="12.000000" r="11.000000" fill="#CE0000" fill-opacity="1.000000"/>
	<rect id="X" width="24.000000" height="24.000000" fill="#FFFFFF" fill-opacity="0"/>
	<g clip-path="url(#clip96_2185)">
		<path id="Vector" d="M6.96 6.96C7.03 6.89 7.12 6.84 7.21 6.8C7.3 6.76 7.4 6.74 7.5 6.74C7.59 6.74 7.69 6.76 7.78 6.8C7.87 6.84 7.96 6.89 8.03 6.96L12 10.93L15.96 6.96C16.03 6.89 16.12 6.84 16.21 6.8C16.3 6.76 16.4 6.74 16.5 6.74C16.59 6.74 16.69 6.76 16.78 6.8C16.87 6.84 16.96 6.89 17.03 6.96C17.1 7.03 17.15 7.12 17.19 7.21C17.23 7.3 17.25 7.4 17.25 7.49C17.25 7.59 17.23 7.69 17.19 7.78C17.15 7.87 17.1 7.96 17.03 8.03L13.06 11.99L17.03 15.96C17.1 16.03 17.15 16.12 17.19 16.21C17.23 16.3 17.25 16.4 17.25 16.49C17.25 16.59 17.23 16.69 17.19 16.78C17.15 16.87 17.1 16.96 17.03 17.03C16.96 17.1 16.87 17.15 16.78 17.19C16.69 17.23 16.59 17.25 16.5 17.25C16.4 17.25 16.3 17.23 16.21 17.19C16.12 17.15 16.03 17.1 15.96 17.03L12 13.06L8.03 17.03C7.96 17.1 7.87 17.15 7.78 17.19C7.69 17.23 7.59 17.25 7.5 17.25C7.4 17.25 7.3 17.23 7.21 17.19C7.12 17.15 7.03 17.1 6.96 17.03C6.89 16.96 6.84 16.87 6.8 16.78C6.76 16.69 6.74 16.59 6.74 16.49C6.74 16.4 6.76 16.3 6.8 16.21C6.84 16.12 6.89 16.03 6.96 15.96L10.93 11.99L6.96 8.03C6.89 7.96 6.84 7.87 6.8 7.78C6.76 7.69 6.74 7.59 6.74 7.49C6.74 7.4 6.76 7.3 6.8 7.21C6.84 7.12 6.89 7.03 6.96 6.96Z" fill="#FFFFFF" fill-opacity="1.000000" fill-rule="nonzero"/>
	</g>
</svg>
