<svg width="24.000000" height="24.000000" viewBox="0 0 24 24" fill="none" xmlns="http://www.w3.org/2000/svg" xmlns:xlink="http://www.w3.org/1999/xlink">
	<desc>
			Created with Pixso.
	</desc>
	<defs>
		<clipPath id="clip96_2107">
			<rect id="Check" width="24.000000" height="24.000000" fill="white" fill-opacity="0"/>
		</clipPath>
	</defs>
	<circle id="Ellipse 185" cx="12.000000" cy="12.000000" r="11.000000" fill="#10A339" fill-opacity="1.000000"/>
	<rect id="Check" width="24.000000" height="24.000000" fill="#FFFFFF" fill-opacity="0"/>
	<g clip-path="url(#clip96_2107)">
		<path id="Vector" d="M16.45 7.45C16.66 7.25 16.94 7.14 17.23 7.14C17.53 7.14 17.81 7.26 18.01 7.46C18.22 7.67 18.34 7.94 18.35 8.24C18.36 8.53 18.25 8.81 18.06 9.02L12.07 16.51C11.97 16.62 11.84 16.71 11.7 16.77C11.57 16.83 11.42 16.87 11.27 16.87C11.12 16.87 10.96 16.84 10.82 16.79C10.68 16.73 10.56 16.65 10.45 16.54L6.48 12.57C6.37 12.47 6.28 12.34 6.22 12.21C6.16 12.07 6.13 11.92 6.12 11.77C6.12 11.62 6.15 11.47 6.2 11.33C6.26 11.19 6.35 11.06 6.45 10.95C6.56 10.85 6.69 10.76 6.83 10.7C6.97 10.65 7.12 10.62 7.27 10.62C7.42 10.63 7.57 10.66 7.71 10.72C7.84 10.78 7.97 10.87 8.07 10.98L11.21 14.12L16.42 7.48L16.45 7.45Z" fill="#FFFFFF" fill-opacity="1.000000" fill-rule="nonzero"/>
	</g>
</svg>
