<svg width="18" height="18" viewBox="0 0 18 18" fill="none" xmlns="http://www.w3.org/2000/svg">
<path d="M11.1496 3.21317C10.7265 3.13501 10.3378 3.40504 10.2573 3.81809C10.1767 4.23114 10.4476 4.63442 10.8592 4.71525C12.0986 4.95687 13.0555 5.91621 13.2981 7.1598C13.3671 7.51777 13.6823 7.77893 14.0452 7.77893C14.0939 7.77893 14.1426 7.77449 14.1922 7.7656C14.6038 7.68299 14.8747 7.2806 14.7942 6.86666C14.4321 5.00927 13.0024 3.5747 11.1496 3.21317Z" fill="white"/>
<path d="M11.0941 0.118133C10.8958 0.0897077 10.6966 0.148334 10.5381 0.27447C10.3752 0.402382 10.2734 0.587144 10.2513 0.794113C10.2044 1.21249 10.5062 1.5909 10.9241 1.63798C13.8056 1.95953 16.0452 4.20422 16.3692 7.09468C16.4126 7.48196 16.7375 7.77421 17.1252 7.77421C17.1544 7.77421 17.1828 7.77243 17.212 7.76888C17.4147 7.74667 17.5953 7.6463 17.7228 7.48641C17.8494 7.32652 17.9069 7.12754 17.8839 6.92413C17.4802 3.31771 14.689 0.518746 11.0941 0.118133Z" fill="white"/>
<path fill-rule="evenodd" clip-rule="evenodd" d="M8.13931 9.86434C11.6852 13.4092 12.4896 9.30819 14.7472 11.5643C16.9238 13.7402 18.1748 14.1762 15.4171 16.9331C15.0717 17.2107 12.877 20.5505 5.16408 12.8397C-2.54977 5.128 0.788064 2.93106 1.06574 2.58573C3.83009 -0.178804 4.25853 1.07945 6.43509 3.2554C8.69276 5.51244 4.59346 6.31948 8.13931 9.86434Z" fill="white"/>
</svg>
