<svg width="19" height="19" viewBox="0 0 19 19" fill="none" xmlns="http://www.w3.org/2000/svg">
<path d="M11.8163 3.87992C11.3931 3.80175 11.0045 4.07179 10.9239 4.48484C10.8434 4.89789 11.1143 5.30117 11.5259 5.382C12.7653 5.62361 13.7222 6.58295 13.9648 7.82654C14.0338 8.18452 14.349 8.44567 14.7119 8.44567C14.7606 8.44567 14.8093 8.44123 14.8589 8.43235C15.2705 8.34974 15.5414 7.94735 15.4608 7.53341C15.0988 5.67602 13.6691 4.24145 11.8163 3.87992Z" fill="#EC6B1E"/>
<path d="M11.7607 0.784881C11.5624 0.756456 11.3632 0.815082 11.2048 0.941218C11.0419 1.06913 10.9401 1.25389 10.918 1.46086C10.871 1.87924 11.1729 2.25765 11.5908 2.30473C14.4722 2.62628 16.7119 4.87096 17.0359 7.76142C17.0793 8.14871 17.4042 8.44096 17.7919 8.44096C17.8211 8.44096 17.8494 8.43918 17.8787 8.43563C18.0814 8.41342 18.262 8.31304 18.3894 8.15315C18.516 7.99326 18.5736 7.79429 18.5506 7.59087C18.1469 3.98446 15.3557 1.18549 11.7607 0.784881Z" fill="#EC6B1E"/>
<path fill-rule="evenodd" clip-rule="evenodd" d="M8.80599 10.5311C12.3518 14.076 13.1562 9.97494 15.4139 12.231C17.5905 14.407 18.8414 14.8429 16.0838 17.5998C15.7383 17.8774 13.5437 21.2172 5.83076 13.5065C-1.88309 5.79475 1.45474 3.59781 1.73242 3.25248C4.49677 0.487944 4.92521 1.7462 7.10177 3.92215C9.35944 6.17919 5.26014 6.98623 8.80599 10.5311Z" fill="#EC6B1E"/>
</svg>
