<svg width="64.000000" height="64.000000" viewBox="0 0 64 64" fill="none" xmlns="http://www.w3.org/2000/svg" xmlns:xlink="http://www.w3.org/1999/xlink">
	<desc>
			Created with Pixso.
	</desc>
	<defs/>
	<path id="Vector" d="M32 0C14.33 0 0 14.33 0 32C0 49.66 14.33 64 32 64C49.66 64 64 49.66 64 32C64 14.33 49.66 0 32 0ZM44.26 33.96L27.94 44.84C27.64 45.04 27.28 45.16 26.91 45.18C26.55 45.19 26.18 45.11 25.86 44.94C25.54 44.77 25.26 44.51 25.07 44.19C24.89 43.88 24.79 43.52 24.78 43.15L24.78 20.84C24.78 19.22 26.6 18.26 27.94 19.15L44.26 30.03C45.65 30.97 45.65 33.02 44.26 33.96Z" fill="#FF6174" fill-opacity="1.000000" fill-rule="nonzero"/>
</svg>
