<svg width="100.000000" height="92.000000" viewBox="0 0 100 92" fill="none" xmlns="http://www.w3.org/2000/svg" xmlns:xlink="http://www.w3.org/1999/xlink">
	<desc>
			Created with Pixso.
	</desc>
	<defs>
		<clipPath id="clip96_2004">
			<rect id="Frame" width="88.000000" height="88.000000" transform="translate(12.000000 2.000000)" fill="white" fill-opacity="0"/>
		</clipPath>
	</defs>
	<circle id="Ellipse 155" cx="46.000000" cy="46.000000" r="46.000000" fill="#FFF1E9" fill-opacity="1.000000"/>
	<rect id="Frame" width="88.000000" height="88.000000" transform="translate(12.000000 2.000000)" fill="#FFFFFF" fill-opacity="0"/>
	<g clip-path="url(#clip96_2004)">
		<path id="Vector" d="M47.99 32.65L47.99 40.48M53.33 32.65L53.33 40.48M58.66 37.99L58.66 40.48M20.42 66.62L23.5 77.4C23.56 77.58 23.66 77.74 23.81 77.85C23.96 77.97 24.14 78.03 24.33 78.03L98.71 78.03L85.92 33.27C85.87 33.09 85.76 32.93 85.61 32.82C85.46 32.71 85.28 32.65 85.09 32.65L68.19 32.65C67.62 32.65 67.21 33.19 67.37 33.74L69.03 39.56C69.19 40.11 68.77 40.66 68.2 40.66L14.14 40.66C13.57 40.66 13.16 41.2 13.32 41.75L18.73 " stroke="#EC6B1E" stroke-opacity="1.000000" stroke-width="1.500000" stroke-linejoin="round"/>
		<path id="Vector" d="M65.66 69.46C61.52 74.27 52.9 73.64 46.42 68.06C39.93 62.47 38.03 54.04 42.17 49.23C46.32 44.42 54.93 45.05 61.42 50.64C67.9 56.22 69.8 64.65 65.66 69.46Z" stroke="#EC6B1E" stroke-opacity="1.000000" stroke-width="1.500000" stroke-linejoin="round"/>
		<path id="Vector" d="M56.4 56.92C55.97 56.92 55.51 56.57 55.38 56.13L54.39 52.84C54.26 52.41 53.81 52.06 53.38 52.06L50.09 52.06C49.66 52.06 49.41 52.41 49.54 52.84L50.53 56.13C50.66 56.57 50.41 56.92 49.98 56.92L46.69 56.92C46.26 56.92 46.01 57.27 46.14 57.7L47.13 60.99C47.26 61.42 47.71 61.77 48.15 61.77L51.44 61.77C51.87 61.77 52.32 62.12 52.45 62.55L53.44 65.84C53.57 66.27 54.02 66.62 54.46 66.62L57.75 66.62C58.18 66.62 58.42 66.27 58.29 65.84L57.31 62.55C57.18 62.12 57.42 61.77 57.85 61.77L61.14 61.77C61.58 61.77 61.82 61.42 61.69 60.99L60.7 57.7C60.57 57.27 60.12 56.92 59.69 56.92L56.4 56.92ZM75.04 24.64L31.02 24.64C30.07 24.64 29.3 25.41 29.3 26.36L29.3 40.48M93.37 59.17L93.37 26.36C93.37 25.41 92.6 24.64 91.65 24.64L81.06 24.64M42.65 24.81L42.65 " stroke="#EC6B1E" stroke-opacity="1.000000" stroke-width="1.500000" stroke-linejoin="round"/>
		<path id="Vector" d="M53.33 19.3L43.51 19.3C43.28 19.3 43.06 19.21 42.9 19.05C42.74 18.89 42.65 18.67 42.65 18.44L42.65 14.82C42.65 14.59 42.56 14.37 42.4 14.21C42.23 14.05 42.02 13.96 41.79 13.96L24.54 13.96C24.31 13.96 24.1 14.05 23.93 14.21C23.77 14.37 23.68 14.59 23.68 14.82L23.68 40.48M98.71 78.03L98.71 20.16C98.71 19.93 98.62 19.71 98.45 19.55C98.29 19.39 98.07 19.3 97.85 19.3L59.34 " stroke="#EC6B1E" stroke-opacity="1.000000" stroke-width="1.500000" stroke-linejoin="round"/>
	</g>
</svg>
