<svg width="101.000000" height="92.000000" viewBox="0 0 101 92" fill="none" xmlns="http://www.w3.org/2000/svg" xmlns:xlink="http://www.w3.org/1999/xlink">
	<desc>
			Created with Pixso.
	</desc>
	<defs>
		<clipPath id="clip96_1850">
			<rect id="Frame" width="86.000000" height="86.000000" transform="translate(15.000000 3.000000)" fill="white" fill-opacity="0"/>
		</clipPath>
	</defs>
	<circle id="Ellipse 155" cx="46.000000" cy="46.000000" r="46.000000" fill="#FFF1E9" fill-opacity="1.000000"/>
	<rect id="Frame" width="86.000000" height="86.000000" transform="translate(15.000000 3.000000)" fill="#FFFFFF" fill-opacity="0"/>
	<g clip-path="url(#clip96_1850)">
		<path id="Vector" d="M70.56 48.6L98.06 48.6C98.98 48.6 99.74 49.36 99.74 50.28L99.74 52.14C99.74 53.07 98.98 53.82 98.06 53.82L17.93 53.82C17.01 53.82 16.25 53.07 16.25 52.14L16.25 50.28C16.25 49.36 17.01 48.6 17.93 48.6L64.68 48.6M71.04 79.74L71.04 64.42M44.95 64.42L44.95 79.74M55.74 79.91L72.06 79.91C74.38 79.91 76.26 81.79 76.26 84.11L76.26 86.9C76.26 87.12 76.17 87.33 76.01 87.49C75.85 87.65 75.64 87.74 75.42 87.74L40.57 87.74C40.35 87.74 40.14 87.65 39.98 87.49C39.82 87.33 39.73 87.12 39.73 86.9L39.73 84.11C39.73 81.79 41.61 79.91 43.93 79.91L49.87 79.91M50.17 58.87L50.17 53.99M65.82 53.99L65.82 58.87M94.52 48.44L94.52 44.14C94.52 42.28 93.01 40.78 91.16 40.78L79.62 40.78C77.76 40.78 76.26 42.28 76.26 44.14L76.26 48.44M52.21 4.25L74.9 4.25C75.52 4.25 75.93 4.91 75.65 5.47L74.11 8.54C73.97 8.82 73.76 9.06 73.49 9.22C73.23 9.39 72.92 9.47 72.61 9.47L43.38 9.47C43.07 9.47 42.76 9.39 42.5 9.22C42.23 9.06 42.02 8.82 41.88 8.54L40.34 5.47C40.06 4.91 40.47 4.25 41.09 4.25L46.33 4.25M65.82 9.64L65.82 22.52M65.99 14.69L70.2 14.69C70.42 14.69 70.64 14.78 70.79 14.94C70.95 15.09 71.04 15.31 71.04 15.53L71.04 21.68C71.04 21.9 70.95 22.11 70.79 22.27C70.64 22.43 70.42 22.52 70.2 22.52L65.82 22.52L51.01 22.52C50.79 22.52 50.57 22.43 50.41 22.27C50.26 22.11 50.17 21.9 50.17 21.68L50.17 9.64M63.21 22.68L63.21 27.57L63.21 22.52L52.78 22.52L52.78 27.57L52.78 22.68M48.4 32.95C48.18 32.95 47.96 32.86 47.81 32.71C47.65 32.55 47.56 32.33 47.56 32.11L47.56 28.57C47.56 28.35 47.65 28.14 47.81 27.98C47.96 27.82 48.18 27.73 48.4 27.73L67.59 27.73C67.81 27.73 68.03 27.82 68.18 27.98C68.34 28.14 68.43 28.35 68.43 28.57L68.43 32.11C68.43 32.33 68.34 32.55 68.18 32.71C68.03 32.86 67.81 32.95 67.59 32.95L48.4 32.95Z" stroke="#EC6B1E" stroke-opacity="1.000000" stroke-width="1.500000" stroke-linejoin="round"/>
		<path id="Vector" d="M44.95 9.64L44.95 14.37C44.95 17.92 43.54 21.32 41.04 23.82L40.81 24.04C38.45 26.41 37.13 29.61 37.13 32.95L37.13 32.95C37.13 37.27 40.63 40.78 44.95 40.78C47.11 40.78 49.07 39.9 50.49 38.49C51.86 37.11 52.73 35.21 52.77 33.12M29.47 53.99L38.01 62.53C38.56 63.08 39.21 63.51 39.92 63.81C40.63 64.1 41.4 64.26 42.17 64.26L73.82 64.26C75.38 64.26 76.88 63.64 77.98 62.53L86.52 " stroke="#EC6B1E" stroke-opacity="1.000000" stroke-width="1.500000" stroke-linejoin="round"/>
		<path id="Vector" d="M79.14 53.99L74.34 58.79C74.26 58.87 74.17 58.93 74.07 58.98C73.97 59.02 73.86 59.04 73.75 59.04L42.24 59.04C42.02 59.04 41.81 58.95 41.65 58.79L36.85 " stroke="#EC6B1E" stroke-opacity="1.000000" stroke-width="1.500000" stroke-linejoin="round" stroke-linecap="round"/>
	</g>
</svg>
