<svg width="5.000000" height="9.000000" viewBox="0 0 5 9" fill="none" xmlns="http://www.w3.org/2000/svg" xmlns:xlink="http://www.w3.org/1999/xlink">
	<desc>
			Created with Pixso.
	</desc>
	<defs/>
	<path id="Vector" d="M-0.52 -0.77C-0.56 -0.74 -0.58 -0.69 -0.6 -0.65C-0.62 -0.6 -0.63 -0.55 -0.63 -0.5C-0.63 -0.46 -0.62 -0.41 -0.6 -0.36C-0.58 -0.32 -0.56 -0.27 -0.52 -0.24L3.72 4L-0.52 8.23C-0.59 8.3 -0.63 8.4 -0.63 8.5C-0.63 8.59 -0.59 8.69 -0.52 8.76C-0.45 8.83 -0.35 8.87 -0.25 8.87C-0.16 8.87 -0.06 8.83 0.01 8.76L4.51 4.26C4.55 4.23 4.57 4.18 4.59 4.14C4.61 4.09 4.62 4.04 4.62 4C4.62 3.95 4.61 3.9 4.59 3.85C4.57 3.81 4.55 3.76 4.51 3.73L0.01 -0.77C-0.02 -0.81 -0.07 -0.83 -0.11 -0.85C-0.16 -0.87 -0.21 -0.88 -0.25 -0.88C-0.3 -0.88 -0.35 -0.87 -0.4 -0.85C-0.44 -0.83 -0.49 -0.81 -0.52 -0.77Z" fill="#000000" fill-opacity="1.000000" fill-rule="evenodd"/>
	<path id="Vector" d="M0.23 0.51L-0.52 -0.24C-0.56 -0.27 -0.58 -0.32 -0.6 -0.36C-0.62 -0.41 -0.63 -0.46 -0.63 -0.5C-0.63 -0.55 -0.62 -0.6 -0.6 -0.65C-0.58 -0.69 -0.56 -0.74 -0.52 -0.77C-0.49 -0.81 -0.44 -0.83 -0.4 -0.85C-0.35 -0.87 -0.3 -0.88 -0.25 -0.88C-0.21 -0.88 -0.16 -0.87 -0.11 -0.85C-0.07 -0.83 -0.02 -0.81 0.01 -0.77L0.76 -0.02L4.51 3.73C4.55 3.76 4.57 3.81 4.59 3.85C4.61 3.9 4.62 3.95 4.62 4C4.62 4.04 4.61 4.09 4.59 4.14C4.57 4.18 4.55 4.23 4.51 4.26L0.76 8.01L0.01 8.76C-0.06 8.83 -0.16 8.87 -0.25 8.87C-0.35 8.87 -0.45 8.83 -0.52 8.76C-0.59 8.69 -0.63 8.59 -0.63 8.5C-0.63 8.4 -0.59 8.3 -0.52 8.23L0.23 7.48L2.65 5.06L3.19 4.53L3.23 4.48L3.71 4L3.72 4L3.23 3.51L3.19 3.47L2.65 2.93L0.23 0.51Z" fill="#000000" fill-opacity="1.000000" fill-rule="evenodd"/>
</svg>
