<svg width="24" height="24" viewBox="0 0 24 24" fill="none" xmlns="http://www.w3.org/2000/svg">
<path fill-rule="evenodd" clip-rule="evenodd" d="M15.9609 1.62988C16.3627 1.62988 16.6889 1.95604 16.6889 2.35791L16.6893 3.18087C18.1066 3.27805 19.2838 3.76352 20.1169 4.59837C21.0264 5.5118 21.505 6.82516 21.5002 8.4006V17.2563C21.5002 20.4906 19.4461 22.5 16.1409 22.5H7.93076C4.62553 22.5 2.57153 20.4625 2.57153 17.1825V8.39866C2.57153 5.34794 4.40329 3.3897 7.39074 3.18121L7.39134 2.35791C7.39134 1.95604 7.71749 1.62988 8.11936 1.62988C8.52123 1.62988 8.84739 1.95604 8.84739 2.35791L8.8471 3.16261H15.2323L15.2328 2.35791C15.2328 1.95604 15.559 1.62988 15.9609 1.62988ZM20.0441 10.273H4.02758V17.1825C4.02758 19.6733 5.41374 21.0439 7.93076 21.0439H16.1409C18.6579 21.0439 20.0441 19.6986 20.0441 17.2563L20.0441 10.273ZM16.3566 16.3809C16.7585 16.3809 17.0846 16.7071 17.0846 17.1089C17.0846 17.5108 16.7585 17.8369 16.3566 17.8369C15.9547 17.8369 15.6247 17.5108 15.6247 17.1089C15.6247 16.7071 15.946 16.3809 16.3479 16.3809H16.3566ZM12.0491 16.3809C12.451 16.3809 12.7772 16.7071 12.7772 17.1089C12.7772 17.5108 12.451 17.8369 12.0491 17.8369C11.6473 17.8369 11.3172 17.5108 11.3172 17.1089C11.3172 16.7071 11.6385 16.3809 12.0404 16.3809H12.0491ZM7.73264 16.3809C8.13451 16.3809 8.46066 16.7071 8.46066 17.1089C8.46066 17.5108 8.13451 17.8369 7.73264 17.8369C7.33077 17.8369 6.99976 17.5108 6.99976 17.1089C6.99976 16.7071 7.32203 16.3809 7.7239 16.3809H7.73264ZM16.3566 12.6081C16.7585 12.6081 17.0846 12.9342 17.0846 13.3361C17.0846 13.738 16.7585 14.0641 16.3566 14.0641C15.9547 14.0641 15.6247 13.738 15.6247 13.3361C15.6247 12.9342 15.946 12.6081 16.3479 12.6081H16.3566ZM12.0491 12.6081C12.451 12.6081 12.7772 12.9342 12.7772 13.3361C12.7772 13.738 12.451 14.0641 12.0491 14.0641C11.6473 14.0641 11.3172 13.738 11.3172 13.3361C11.3172 12.9342 11.6385 12.6081 12.0404 12.6081H12.0491ZM7.73264 12.6081C8.13451 12.6081 8.46066 12.9342 8.46066 13.3361C8.46066 13.738 8.13451 14.0641 7.73264 14.0641C7.33077 14.0641 6.99976 13.738 6.99976 13.3361C6.99976 12.9342 7.32203 12.6081 7.7239 12.6081H7.73264ZM15.2323 4.61866H8.8471L8.84739 5.55247C8.84739 5.95434 8.52123 6.2805 8.11936 6.2805C7.71749 6.2805 7.39134 5.95434 7.39134 5.55247L7.39082 4.6407C5.21624 4.82337 4.02758 6.14155 4.02758 8.39866V8.81693H20.0441L20.0441 8.39866C20.048 7.19984 19.7257 6.26797 19.086 5.62731C18.5245 5.06412 17.7036 4.72777 16.6897 4.64116L16.6889 5.55247C16.6889 5.95434 16.3627 6.2805 15.9609 6.2805C15.559 6.2805 15.2328 5.95434 15.2328 5.55247L15.2323 4.61866Z" fill="#506998"/>
</svg>
