<svg width="650" height="692" viewBox="0 0 650 692" fill="none" xmlns="http://www.w3.org/2000/svg">
<g style="mix-blend-mode:luminosity" opacity="0.2">
<path fill-rule="evenodd" clip-rule="evenodd" d="M0 339.362C0 445.945 39.8039 529.194 96.5108 585.812C127.672 616.916 149.993 635.209 191.526 655.987C259.408 689.945 295.038 691.299 368.096 691.299C442.761 691.299 534.669 648.359 587.612 594.788C603.524 578.689 644.97 530.577 650 511.745C645.638 514.659 643.316 518.669 639.787 523.079C635.266 528.737 634.059 530.454 628.911 535.538C621.524 542.843 614.101 551.426 606.374 557.898C497.31 649.215 360.193 658.748 237.088 585.285L206.061 562.449C204.817 561.387 202.226 559.119 201.335 558.192C196.616 553.303 199.94 559.746 197.512 553.044C216.544 553.044 235.258 549.327 259.303 557.688C269.932 561.381 339.297 596.594 351.685 605.36C379.482 625.03 420.183 625.88 452.276 612.09L485.057 596.384C492.421 593.405 500.57 587.789 508.151 587.155V583.567C500.259 582.904 392.732 544.397 371.397 537.167L362.708 533.292C379.863 533.292 510.467 574.585 540.468 574.585C558.145 574.585 585.408 532.63 533.55 516.863L438.182 486.534L398.689 463.194C392.621 459.694 386.734 455.583 379.887 451.468C372.874 447.253 367.163 443.816 360.808 440.018C310.147 409.701 281.33 386.049 217.265 386.049C172.284 386.049 143.895 401.944 111.326 423.754C96.071 358.287 96.9615 375.449 96.9615 307.051C96.9615 268.261 113.543 220.225 126.277 192.723C130.475 183.652 134.028 177.889 139.035 169.558C165.595 125.403 203.053 86.7838 247.876 61.1448C288.546 37.8746 340.551 19.7466 387.842 19.7466C439.501 19.7466 434.289 18.3456 486.605 30.5228C476.995 17.4133 388.786 0 364.502 0C287.62 0 266.01 3.67035 195.191 33.5945C189.527 35.9813 187.34 37.5757 182.385 40.5423C177.162 43.6738 173.357 45.0162 168.408 48.1059C67.4595 111.373 0 217.048 0 339.362Z" fill="#ED6809"/>
<path fill-rule="evenodd" clip-rule="evenodd" d="M375.268 258.57C394.534 258.57 405.796 263.958 405.796 287.299C405.796 317.305 353.68 319.644 352.508 285.293C352.086 272.94 362.082 258.57 375.268 258.57ZM337.563 404.002L339.861 366.783C342.365 349.317 339.973 349.2 332.181 337.574C327.918 331.218 301.652 294.1 301.652 289.087C301.652 268.755 328.305 298.327 328.317 298.333C334.216 303.041 336.214 304.735 341.602 310.182C357.438 326.199 350.151 321.41 402.202 321.41C405.362 321.41 421.456 309.243 425.05 306.553C429.606 303.152 443.959 290.881 448.889 290.881C467.001 290.881 441.227 319.533 434.86 328.926C432.374 332.602 431.154 334.812 428.38 338.606C417.446 353.597 419.299 347.711 420.003 360.867C420.419 368.577 421.105 371.943 421.668 377.36C422.887 389.016 422.816 397.458 424.037 409.108L428.509 454.91C430.943 463.347 430.134 460.122 437.972 463.411C444.516 466.15 455.093 471.56 463.254 472.24C463.594 457.061 470.993 440.434 472.23 425.549C492.962 425.549 535.697 425.718 536.993 405.778C537.321 400.765 535.211 385.908 534.337 379.606C529.688 345.981 519.257 264.445 511.758 233.406C503.639 199.77 486.459 184.767 448.861 183.096C413.946 181.531 423.972 185.259 402.202 190.33C398.099 187.587 394.909 184.298 390.195 180.792C362.123 159.942 303.007 161.367 278.364 174.231C266.416 180.469 257.334 188.126 254.661 204.396C249.876 233.518 242.817 264.374 239.13 294.798C232.351 350.672 255.593 323.109 261.884 346.819C263.601 353.281 265.454 362.82 267.412 368.214C269.605 374.252 268.409 372.928 281.923 378.849L318.567 396.063C325.509 398.93 331.389 402.571 337.563 404.002Z" fill="#ED6809"/>
<path fill-rule="evenodd" clip-rule="evenodd" d="M504.55 504.557C515.092 509.616 531.215 512.736 542.536 516.852C554.315 521.12 565.602 530.149 565.602 545.856H569.19C570.867 539.576 624.015 459.06 629.877 450.33C637.752 438.593 649.993 424.626 649.993 414.777C649.993 398.959 615.138 405.941 599.689 405.777C577.204 405.537 574.191 410.655 559.175 429.903C549.273 442.591 540.561 453.837 531.203 466.571C526.731 472.668 505.805 499.861 504.55 504.557Z" fill="#ED6809"/>
<path fill-rule="evenodd" clip-rule="evenodd" d="M292.682 102.351C292.682 176.593 377.074 164.158 377.074 107.739C377.074 90.7657 366.96 72.9064 353.446 64.921C323.017 46.9397 292.682 77.6501 292.682 102.351Z" fill="#ED6809"/>
<path fill-rule="evenodd" clip-rule="evenodd" d="M398.618 131.08C398.618 180.851 468.645 191.38 468.645 131.08C468.645 111.439 451.883 95.0516 434.183 93.8145C415.38 92.501 398.618 112.951 398.618 131.08Z" fill="#ED6809"/>
<path fill-rule="evenodd" clip-rule="evenodd" d="M432.736 89.7741C448.162 89.7741 454.077 95.4789 461.975 103.634C469.579 111.49 474.035 125.151 474.035 134.667C474.035 149.342 464.783 150.269 477.066 162.159C482.565 167.483 492.855 174.084 500.964 175.965C499.745 170.718 496.05 165.518 491.988 149.043C487.362 130.299 474.076 79.0037 450.688 79.0037C441.817 79.0037 433.698 78.2006 432.736 89.7741Z" fill="#ED6809"/>
</g>
</svg>
