<svg width="9.000000" height="33.000000" viewBox="0 0 9 33" fill="none" xmlns="http://www.w3.org/2000/svg" xmlns:xlink="http://www.w3.org/1999/xlink">
	<desc>
			Created with Pixso.
	</desc>
	<defs/>
	<path id="Vector" d="M8.69 10.7L0.38 11.74L0.08 13.12L1.72 13.42C2.78 13.68 2.99 14.06 2.76 15.12L0.08 27.71C-0.62 30.96 0.46 32.5 3.01 32.5C4.99 32.5 7.29 31.58 8.33 30.33L8.65 28.82C7.92 29.45 6.86 29.71 6.16 29.71C5.16 29.71 4.8 29.01 5.05 27.77L8.69 10.7ZM8.94 3.12C8.94 4.09 8.56 5.01 7.88 5.69C7.2 6.37 6.27 6.76 5.31 6.76C4.35 6.76 3.43 6.37 2.75 5.69C2.06 5.01 1.68 4.09 1.68 3.12C1.68 2.16 2.06 1.24 2.75 0.56C3.43 -0.12 4.35 -0.5 5.31 -0.5C6.27 -0.5 7.2 -0.12 7.88 0.56C8.56 1.24 8.94 2.16 8.94 3.12Z" fill="#EC6B1E" fill-opacity="1.000000" fill-rule="nonzero"/>
</svg>
