<svg width="100.000000" height="92.000000" viewBox="0 0 100 92" fill="none" xmlns="http://www.w3.org/2000/svg" xmlns:xlink="http://www.w3.org/1999/xlink">
	<desc>
			Created with Pixso.
	</desc>
	<defs>
		<clipPath id="clip96_1914">
			<rect id="Frame" width="88.000000" height="88.000000" transform="translate(12.000000 2.000000)" fill="white" fill-opacity="0"/>
		</clipPath>
	</defs>
	<circle id="Ellipse 155" cx="46.000000" cy="46.000000" r="46.000000" fill="#FFF1E9" fill-opacity="1.000000"/>
	<rect id="Frame" width="88.000000" height="88.000000" transform="translate(12.000000 2.000000)" fill="#FFFFFF" fill-opacity="0"/>
	<g clip-path="url(#clip96_1914)">
		<mask id="mask96_1917" mask-type="alpha" maskUnits="userSpaceOnUse" x="12.000000" y="2.000244" width="87.999748" height="87.999756">
			<path id="Vector" d="M12 2L99.99 2L99.99 90L12 90L12 2Z" fill="#000000" fill-opacity="1.000000" fill-rule="nonzero"/>
		</mask>
		<g mask="url(#mask96_1917)">
			<path id="Vector" d="M67.41 84.29C50.13 84.29 36.12 70.28 36.12 53C36.12 35.71 50.13 21.7 67.41 21.7C84.7 21.7 98.71 35.71 98.71 53C98.71 70.28 84.7 84.29 67.41 84.29Z" stroke="#EC6B1E" stroke-opacity="1.000000" stroke-width="1.500000" stroke-linejoin="round"/>
			<path id="Vector" d="M64.94 54.42C65.73 55.78 67.47 56.25 68.84 55.46L81.83 47.96C83.19 47.18 83.66 45.43 82.87 44.07C82.08 42.71 80.34 42.24 78.98 43.03L65.99 50.53C64.62 51.31 64.16 53.06 64.94 54.42Z" stroke="#EC6B1E" stroke-opacity="1.000000" stroke-width="1.500000" stroke-linejoin="round"/>
			<path id="Vector" d="M72.15 7.7L73.94 7.7C74.06 7.7 74.17 7.72 74.29 7.77C74.4 7.82 74.5 7.88 74.58 7.97C74.67 8.05 74.73 8.15 74.78 8.27C74.83 8.38 74.85 8.5 74.85 8.62L74.85 16.14C74.85 16.26 74.83 16.38 74.78 16.49C74.73 16.6 74.67 16.7 74.58 16.78C74.5 16.87 74.4 16.94 74.29 16.98C74.17 17.03 74.06 17.05 73.94 17.05L60.89 17.05C60.65 17.05 60.41 16.96 60.24 16.78C60.07 16.61 59.97 16.38 59.97 16.14L59.97 8.62C59.97 8.37 60.07 8.14 60.24 7.97C60.41 7.8 60.65 7.7 60.89 7.7L66.14 " stroke="#EC6B1E" stroke-opacity="1.000000" stroke-width="1.500000" stroke-linejoin="round" stroke-linecap="round"/>
			<path id="Vector" d="M63.46 17.05L63.46 " stroke="#EC6B1E" stroke-opacity="1.000000" stroke-width="1.500000" stroke-linejoin="round" stroke-linecap="round"/>
			<path id="Vector" d="M71.37 21.95L71.37 " stroke="#EC6B1E" stroke-opacity="1.000000" stroke-width="1.500000" stroke-linejoin="round" stroke-linecap="round"/>
			<path id="Vector" d="M92.16 33.84L97.81 28.19C98.02 27.99 98.13 27.71 98.13 27.42C98.13 27.13 98.02 26.86 97.81 26.65L93.76 22.6C93.55 22.39 93.28 22.28 92.99 22.28C92.7 22.28 92.42 22.39 92.22 22.6L86.57 28.25C87.61 29.06 88.6 29.93 89.54 30.87C90.48 31.8 91.35 32.8 92.16 33.84Z" stroke="#EC6B1E" stroke-opacity="1.000000" stroke-width="1.500000" stroke-linejoin="round"/>
			<path id="Vector" d="M42.66 33.84L37.01 28.19C36.81 27.99 36.69 27.71 36.69 27.42C36.69 27.13 36.81 26.86 37.01 26.65L41.07 22.6C41.27 22.39 41.55 22.28 41.84 22.28C42.13 22.28 42.4 22.39 42.61 22.6L48.26 28.25C47.21 29.06 46.22 29.93 45.28 30.87C44.35 31.8 43.47 32.8 42.66 33.84Z" stroke="#EC6B1E" stroke-opacity="1.000000" stroke-width="1.500000" stroke-linejoin="round"/>
			<path id="Vector" d="M67.41 12.72L67.41 " stroke="#EC6B1E" stroke-opacity="1.000000" stroke-width="1.500000" stroke-linejoin="round" stroke-linecap="round"/>
			<path id="Vector" d="M16.07 53L13.28 " stroke="#EC6B1E" stroke-opacity="1.000000" stroke-width="1.500000" stroke-linejoin="round" stroke-linecap="round"/>
			<path id="Vector" d="M29.59 53L22.09 " stroke="#EC6B1E" stroke-opacity="1.000000" stroke-width="1.500000" stroke-linejoin="round" stroke-linecap="round"/>
			<path id="Vector" d="M31.79 41.25L15.48 " stroke="#EC6B1E" stroke-opacity="1.000000" stroke-width="1.500000" stroke-linejoin="round" stroke-linecap="round"/>
			<path id="Vector" d="M31.79 64.75L15.48 " stroke="#EC6B1E" stroke-opacity="1.000000" stroke-width="1.500000" stroke-linejoin="round" stroke-linecap="round"/>
			<path id="Vector" d="M67.41 73.4L67.41 " stroke="#EC6B1E" stroke-opacity="1.000000" stroke-width="1.500000" stroke-linejoin="round" stroke-linecap="round"/>
			<path id="Vector" d="M57.21 70.66L59.14 " stroke="#EC6B1E" stroke-opacity="1.000000" stroke-width="1.500000" stroke-linejoin="round" stroke-linecap="round"/>
			<path id="Vector" d="M49.74 63.2L53.08 " stroke="#EC6B1E" stroke-opacity="1.000000" stroke-width="1.500000" stroke-linejoin="round" stroke-linecap="round"/>
			<path id="Vector" d="M47.01 53L50.86 " stroke="#EC6B1E" stroke-opacity="1.000000" stroke-width="1.500000" stroke-linejoin="round" stroke-linecap="round"/>
			<path id="Vector" d="M49.74 42.79L53.08 " stroke="#EC6B1E" stroke-opacity="1.000000" stroke-width="1.500000" stroke-linejoin="round" stroke-linecap="round"/>
			<path id="Vector" d="M57.21 35.33L59.14 " stroke="#EC6B1E" stroke-opacity="1.000000" stroke-width="1.500000" stroke-linejoin="round" stroke-linecap="round"/>
			<path id="Vector" d="M67.41 32.59L67.41 " stroke="#EC6B1E" stroke-opacity="1.000000" stroke-width="1.500000" stroke-linejoin="round" stroke-linecap="round"/>
			<path id="Vector" d="M77.61 35.33L75.69 " stroke="#EC6B1E" stroke-opacity="1.000000" stroke-width="1.500000" stroke-linejoin="round" stroke-linecap="round"/>
			<path id="Vector" d="M85.08 42.79L82.87 " stroke="#EC6B1E" stroke-opacity="1.000000" stroke-width="1.500000" stroke-linejoin="round" stroke-linecap="round"/>
			<path id="Vector" d="M87.81 53L83.97 " stroke="#EC6B1E" stroke-opacity="1.000000" stroke-width="1.500000" stroke-linejoin="round" stroke-linecap="round"/>
			<path id="Vector" d="M85.08 63.2L81.75 " stroke="#EC6B1E" stroke-opacity="1.000000" stroke-width="1.500000" stroke-linejoin="round" stroke-linecap="round"/>
			<path id="Vector" d="M77.61 70.66L75.69 " stroke="#EC6B1E" stroke-opacity="1.000000" stroke-width="1.500000" stroke-linejoin="round" stroke-linecap="round"/>
			<path id="Vector" d="M47.67 67.84C52.18 73.82 59.34 77.7 67.41 77.7C81.05 77.7 92.11 66.64 92.11 53C92.11 39.35 81.05 28.3 67.41 28.3C53.77 28.3 42.71 39.35 42.71 53C42.71 56.41 43.41 59.67 44.66 " stroke="#EC6B1E" stroke-opacity="1.000000" stroke-width="1.500000" stroke-linejoin="round" stroke-linecap="round"/>
		</g>
	</g>
</svg>
